<?xml version="1.0" encoding="iso-8859-1"?>
<!-- Generator: Adobe Illustrator 19.0.0, SVG Export Plug-In . SVG Version: 6.00 Build 0)  -->
<svg version="1.1" id="Layer_1" xmlns="http://www.w3.org/2000/svg" xmlns:xlink="http://www.w3.org/1999/xlink" x="0px" y="0px"
	 viewBox="0 0 501.989 501.989" style="enable-background:new 0 0 501.989 501.989;" xml:space="preserve">
<g>
	<g>
		<g>
			<path style="fill:#F7931E;" d="M280.809,183.933c1.213,27.576-4.918,57.072-17.938,85.163
				c-10.873,23.46-25.602,43.884-42.875,59.825c7.552,12.818,12.918,22.397,14.949,26.056c4.136,6.711,8.958,12.951,14.362,18.681
				c6.25,6.628,13.294,12.555,21.023,17.678c5.243,3.475,10.789,6.593,16.623,9.296c0.006,0.003,0.012,0.006,0.019,0.009
				c26.799,12.416,56.205,14.85,83.076,6.934c-11.789-5.887-20.145-16.049-24.073-27.723c-23.839-10.03-35.896-21.768-41.957-31.528
				c-10.284-16.562-5.922-32.097-5.53-33.395c4.507-7.558,8.671-15.419,12.443-23.558c12.549-27.076,20.048-55.449,22.271-83.285
				c12.984,1.464,25.846,5.066,38.03,10.713c0.006,0.003,0.012,0.005,0.018,0.008c-0.006-0.003-0.012-0.006-0.018-0.009
				c-13.271-6.151-19.043-21.896-12.892-35.166c6.151-13.272,21.896-19.047,35.167-12.892c0.015,0.007,0.03,0.015,0.046,0.022
				c-0.016-0.007-0.031-0.016-0.046-0.023c-4.064-1.883-8.189-3.588-12.355-5.151c6.72-4.701,12.329-11.172,16.019-19.132
				c0,0,0-0.001,0.001-0.002c5.404-11.661,5.944-24.727,1.52-36.793c-4.424-12.067-13.282-21.69-24.942-27.092
				c-11.661-5.407-24.728-5.947-36.795-1.522c-10.614,3.89-19.334,11.215-24.958,20.858c-13.63-23.916-33.128-42.297-57.287-53.494
				c13.271,6.151,19.043,21.896,12.892,35.166c-6.151,13.271-21.895,19.047-35.167,12.892c-0.002-0.001-0.004-0.002-0.005-0.002
				c0.002,0.001,0.003,0.002,0.005,0.002c22.918,10.623,39.081,33.461,45.514,64.307
				C279.538,168.398,280.432,176.157,280.809,183.933z"/>
		</g>
		<path style="fill:#F7931E;" d="M188.89,381.152c-3.356-6.06-8.043-14.28-13.627-23.753c-22.705,8.682-44.917,8.789-63.774,0.054
			c13.26,6.157,19.026,21.893,12.877,35.16c-4.48,9.666-14.051,15.354-24.047,15.354c-3.713,0-7.483-0.785-11.074-2.442
			c16.586,7.68,34.336,11.498,52.588,11.498c20.469,0,41.571-4.82,62.376-14.361c-5.413-6.454-10.346-13.315-14.757-20.545
			C189.257,381.8,189.07,381.478,188.89,381.152z"/>
		<path style="fill:#3FA9F5;" d="M393.552,170.762c-0.015-0.007-0.03-0.015-0.046-0.022c-13.272-6.155-29.016-0.38-35.167,12.892
			c-6.151,13.27-0.379,29.016,12.892,35.166c0.006,0.003,0.012,0.006,0.018,0.009c51.519,23.89,78.196,78.197,64.035,125.768
			c-4.601-10.093-12.673-18.661-23.503-23.681c-24.07-11.156-52.731-0.648-63.887,23.423c-5.38,11.607-5.71,24.275-1.92,35.536
			c3.928,11.674,12.284,21.837,24.073,27.723c-26.872,7.916-56.277,5.482-83.076-6.934c6.862,3.187,11.71,8.942,13.944,15.59
			c2.083,6.197,1.896,13.169-1.07,19.568c-4.48,9.666-14.05,15.354-24.047,15.354c-3.713,0-7.482-0.785-11.073-2.441
			c23.527,10.897,48.571,16.405,73.446,16.405c16.949-0.001,33.821-2.559,50.069-7.712c40.955-12.989,73.089-40.81,90.483-78.338
			C514.233,302.451,476.026,209.016,393.552,170.762z"/>
		<g>
			<polygon style="fill:#009245;" points="163.932,188.491 163.932,188.491 163.932,188.492 			"/>
		</g>
		<path style="fill:#009245;" d="M300.915,416.232c-2.234-6.648-7.082-12.403-13.944-15.59c-0.006-0.003-0.012-0.006-0.019-0.009
			c-5.834-2.704-11.38-5.821-16.623-9.296c-7.729-5.123-14.773-11.051-21.023-17.678c-5.403-5.729-10.225-11.97-14.362-18.681
			c-2.031-3.659-7.397-13.238-14.949-26.056c-19.143-32.493-52.343-85.815-80.937-116.395c10.612-4.497,19.658-12.78,24.874-24.034
			c11.156-24.07,0.65-52.73-23.421-63.887c-3.854-1.787-7.863-3.03-11.938-3.75c8.003-6.836,16.499-12.737,25.374-17.554
			c27.694-15.027,55.564-17.455,78.482-6.837c0.002,0.001,0.004,0.002,0.005,0.002c13.272,6.156,29.016,0.38,35.167-12.892
			c6.151-13.271,0.379-29.016-12.892-35.166c-38.49-17.84-83.247-14.88-126.026,8.336c-40.209,21.82-74.198,59.393-95.706,105.798
			s-28.21,96.626-18.872,141.409c9.935,47.648,36.604,83.715,75.094,101.554c0.015,0.007,0.031,0.013,0.046,0.02
			c3.592,1.656,7.361,2.442,11.074,2.442c9.996,0,19.567-5.688,24.047-15.354c6.149-13.266,0.383-29.003-12.877-35.16
			c-0.005-0.002-0.01-0.005-0.015-0.008c-22.918-10.621-41.859-34.074-44.476-64.442c-1.667-19.333,1.692-31.108,11.288-43.643
			c5.776-7.546,10.693-9.846,11.849-9.846c0.006,0,0.012,0,0.018,0c0.203,0.036,1.094,0.409,2.476,1.605
			c23.584,20.411,60.3,78.39,82.635,116.28c5.584,9.473,10.271,17.693,13.627,23.753c0.18,0.326,0.367,0.648,0.561,0.965
			c4.411,7.23,9.344,14.092,14.757,20.545c16.24,19.363,36.792,35.056,60.47,46.031c0.016,0.007,0.031,0.013,0.047,0.02
			c3.591,1.656,7.361,2.441,11.073,2.441c9.996,0,19.567-5.688,24.047-15.354C302.811,429.401,302.997,422.429,300.915,416.232z"/>
	</g>
	<g>
		<path d="M399.058,162.31c2.835-3.574,5.253-7.483,7.186-11.652c6.527-14.084,7.179-29.866,1.836-44.44
			c-5.344-14.576-16.043-26.198-30.125-32.723c-14.085-6.53-29.868-7.183-44.441-1.839c-7.769,2.847-14.801,7.313-20.64,13.02
			c-14.042-19.845-32.463-35.368-53.926-45.323c-0.012-0.006-0.023-0.011-0.034-0.016l0,0
			c-41.429-19.202-89.373-16.143-135.001,8.619C81.827,70.794,46.31,109.995,23.904,158.338
			C1.497,206.68-5.459,259.118,4.315,305.993c10.597,50.821,39.25,89.385,80.768,108.626c0.029,0.014,0.061,0.027,0.094,0.042
			l0.001-0.001c17.767,8.203,36.826,12.364,56.655,12.364c19.774,0,39.812-4.142,59.668-12.295
			c16.429,18.028,36.227,32.495,58.973,43.039c0.065,0.03,0.131,0.06,0.197,0.088c0.005,0.003,0.01,0.005,0.015,0.007l0.001-0.002
			c24.78,11.451,50.848,17.259,77.486,17.259c18.119-0.001,35.981-2.753,53.092-8.18c43.663-13.849,77.945-43.561,96.532-83.665
			C525.432,302.07,485.623,203.261,399.058,162.31z M369.81,160.512c-9.149,3.355-16.445,10.072-20.544,18.915
			c-3.031,6.538-4.044,13.661-3.01,20.628c-3.947-0.818-7.928-1.454-11.935-1.906c-2.691-0.302-5.391,0.499-7.481,2.222
			s-3.392,4.22-3.607,6.92c-2.161,27.062-9.353,53.936-21.376,79.876c-3.562,7.686-7.577,15.288-11.934,22.599l-0.241,0.406
			c-0.759,1.274-1.207,2.688-1.341,4.132c-1.304,6.039-3.349,22.341,7.179,39.297c8.313,13.388,22.637,24.727,42.609,33.742
			l0.009-0.013c2.238,5.269,5.188,10.124,8.774,14.437c-35.523,2.952-74.991-12.939-96.389-41.98
			c-7.102-8.956-12.201-19.295-17.93-29.138c15.771-15.964,29.289-35.637,39.35-57.346c13.259-28.609,20.581-60.425,18.737-92.035
			c-0.446-7.725-1.437-15.306-2.943-22.534c-4.618-22.142-13.917-40.604-26.978-54.103c6.978-3.707,12.534-9.556,15.915-16.85
			c1.606-3.466,2.646-7.096,3.114-10.778c9.101,8.376,16.963,18.347,23.52,29.853c0.037,0.065,0.084,0.121,0.123,0.185
			c0.068,0.113,0.126,0.228,0.198,0.339c0.037,0.057,3.809,5.932,8.028,16.346c1.576,3.889,5.319,6.248,9.271,6.248
			c1.25,0,2.522-0.236,3.752-0.734c5.119-2.074,7.587-7.905,5.513-13.023c-2.372-5.855-4.65-10.516-6.42-13.852
			c4.302-5.406,9.961-9.487,16.624-11.928c9.559-3.506,19.909-3.078,29.147,1.206c9.236,4.279,16.252,11.901,19.757,21.462
			c3.504,9.558,3.077,19.909-1.206,29.147C384.341,150.352,377.84,156.729,369.81,160.512z M367.027,227.872
			c0.008,0.004,0.017,0.008,0.025,0.011c38.788,17.991,62.774,55.191,62,92.284c-3.937-3.334-8.325-6.149-13.067-8.348
			c-29.074-13.473-63.689-0.782-77.164,28.291c-3.281,7.079-5.056,14.633-5.331,22.257c-11.557-7.053-17.713-14.062-20.978-19.32
			c-6.784-10.926-5.371-21.106-4.694-24.251c4.433-7.529,8.529-15.335,12.185-23.222c11.438-24.677,18.842-50.182,22.067-75.964
			C350.607,221.372,358.967,224.137,367.027,227.872z M270.831,184.662c1.096,26.084-4.792,53.818-17.033,80.229
			c-8.308,17.926-19.177,34.267-31.78,47.878c-19.16-31.868-44.04-70.382-67.316-97.705c7.84-5.75,14.15-13.409,18.302-22.367
			c6.519-14.064,7.164-29.845,1.816-44.434c-4.769-13.009-13.787-23.66-25.655-30.437c3.142-2.073,6.33-3.988,9.551-5.736
			c24.846-13.48,49.531-15.808,69.508-6.553l0,0c0.013,0.006,0.027,0.012,0.04,0.018c0.006,0.003,0.011,0.005,0.017,0.008
			c19.949,9.272,34.11,29.602,39.876,57.25C269.659,170.012,270.445,177.327,270.831,184.662z M141.832,407.023
			c-4.931,0-9.806-0.301-14.611-0.9c2.506-2.725,4.616-5.85,6.217-9.305c3.462-7.47,4.172-15.526,2.55-23.017
			c11.177,0.747,22.863-0.688,34.772-4.295c5.684,9.787,10.903,19.712,17.512,28.922
			C172.707,404.138,157.136,407.023,141.832,407.023z M114.996,348.052c-32.417-15.549-51.841-62.48-28.77-92.612
			c1.166-1.522,2.254-2.733,3.205-3.675c16.406,15.962,42.171,52.331,70.775,99.895c-15.565,3.799-30.301,2.905-43.203-2.693
			L114.996,348.052z M290.575,432.004c-4.027,8.095-13.642,11.125-21.823,7.555c-22.334-10.374-41.472-24.949-56.882-43.322
			c-5.093-6.073-9.764-12.576-13.885-19.332c-0.116-0.19-0.229-0.383-0.347-0.598c-3.793-6.85-8.681-15.368-13.761-23.986
			c-16.447-27.901-57.625-95.326-84.705-118.763c-2.506-2.169-4.953-3.478-7.273-3.889c-0.577-0.103-1.18-0.154-1.766-0.154
			c-5.793,0-13.191,5.146-19.789,13.767c-31.265,40.837-7.711,102.552,36.924,123.237c0.003,0.001,0.005,0.002,0.008,0.004
			c0,0,0,0,0.001,0c8.24,3.825,11.835,13.644,8.015,21.885c-2.69,5.807-8.568,9.559-14.973,9.559c-2.379,0-4.696-0.512-6.887-1.522
			c-0.046-0.021-0.093-0.042-0.14-0.063c-35.49-16.494-60.133-50.039-69.398-94.47c-8.903-42.694-2.455-90.696,18.155-135.163
			c20.61-44.468,53.071-80.413,91.403-101.215c39.933-21.67,81.502-24.53,117.052-8.051c3.995,1.852,7.03,5.147,8.545,9.281
			c1.516,4.135,1.33,8.611-0.521,12.606l0,0c-1.852,3.996-5.148,7.031-9.282,8.548c-4.133,1.515-8.61,1.33-12.603-0.522
			c-0.031-0.015-0.063-0.029-0.094-0.043c-25.839-11.936-56.863-9.394-87.371,7.16c-9.341,5.069-18.409,11.334-26.955,18.619
			c-12.927,10.254-24.357,21.491-33.971,33.403c-3.469,4.298-2.796,10.594,1.501,14.063c1.85,1.492,4.069,2.218,6.274,2.218
			c2.919,0,5.813-1.271,7.788-3.72c7.794-9.657,16.952-18.847,27.251-27.38c1.791,0.531,3.545,1.177,5.24,1.963
			c9.218,4.272,16.228,11.896,19.737,21.47c3.509,9.572,3.089,19.921-1.184,29.139c-3.973,8.572-10.97,15.331-19.703,19.032
			c-3.007,1.274-5.203,3.937-5.88,7.132s0.247,6.52,2.478,8.905c28.421,30.395,62.087,84.873,79.626,114.642
			c7.527,12.775,12.872,22.321,14.82,25.832c0.074,0.133,0.151,0.265,0.231,0.395c4.431,7.188,9.679,14.017,15.599,20.295
			c6.774,7.183,14.436,13.626,22.773,19.152c5.683,3.767,11.68,7.125,17.829,9.98C290.921,413.653,294.653,423.526,290.575,432.004z
			 M469.649,374.863c-16.199,34.951-46.184,60.88-84.433,73.011c-15.153,4.806-30.982,7.243-47.046,7.244
			c-12.48,0-24.829-1.436-36.954-4.285c3.162-3.06,5.793-6.711,7.701-10.827c3.014-6.504,4.029-13.638,3-20.611
			c20.398,4.252,41.317,3.56,60.955-2.226c3.942-1.162,6.773-4.617,7.135-8.711c0.363-4.094-1.816-7.992-5.494-9.828
			c-9.046-4.518-15.816-12.318-19.063-21.967c-3.127-9.292-2.589-19.287,1.515-28.142c8.837-19.068,31.541-27.393,50.609-18.555
			c7.229,3.35,13.208,8.903,17.114,15.822c-0.588,2.14-1.536,5.255-2.956,9.022c-1.949,5.167,0.66,10.937,5.827,12.886
			c1.163,0.438,2.354,0.646,3.528,0.646c4.041,0,7.847-2.469,9.358-6.474c2.888-7.655,4.205-13.293,4.552-14.897
			c15.411-52.68-14.329-111.535-69.377-137.159l-0.001-0.001c-0.061-0.029-0.123-0.059-0.184-0.088
			c-3.995-1.852-7.03-5.147-8.545-9.281c-1.516-4.135-1.331-8.611,0.521-12.606c1.852-3.996,5.149-7.031,9.283-8.547
			c4.127-1.514,8.593-1.332,12.582,0.511l0,0c0.022,0.011,0.045,0.021,0.068,0.031C466.814,215.766,502.838,303.257,469.649,374.863
			z"/>
		<path d="M79.312,176.941c-5.026-2.288-10.956-0.067-13.244,4.96c-4.371,9.606-5.805,15.741-5.954,16.409
			c-1.199,5.371,2.173,10.679,7.539,11.903c0.746,0.171,1.49,0.252,2.225,0.252c4.549,0,8.667-3.136,9.745-7.751
			c0.011-0.047,1.15-4.84,4.649-12.53C86.56,185.158,84.339,179.228,79.312,176.941z"/>
		<path d="M420.981,379.97c-4.436-3.288-10.699-2.358-13.988,2.08c-1.479,1.994-3.032,3.936-4.618,5.772
			c-3.611,4.179-3.15,10.493,1.029,14.104c1.891,1.633,4.217,2.433,6.533,2.433c2.805,0,5.594-1.174,7.571-3.463
			c1.911-2.211,3.778-4.545,5.552-6.938C426.349,389.521,425.418,383.259,420.981,379.97z"/>
		<path d="M321.656,160.649c0.741,4.962,5.008,8.524,9.877,8.524c0.491,0,0.989-0.036,1.49-0.11
			c5.462-0.816,9.229-5.905,8.413-11.367c-0.445-2.983-0.97-5.996-1.56-8.955c-1.079-5.416-6.344-8.93-11.761-7.854
			c-5.417,1.079-8.933,6.345-7.854,11.762C320.789,155.293,321.258,157.985,321.656,160.649z"/>
	</g>
</g>
<g>
</g>
<g>
</g>
<g>
</g>
<g>
</g>
<g>
</g>
<g>
</g>
<g>
</g>
<g>
</g>
<g>
</g>
<g>
</g>
<g>
</g>
<g>
</g>
<g>
</g>
<g>
</g>
<g>
</g>
</svg>
